<?xml version="1.0" encoding="UTF-8" standalone="no"?>
<!-- Created with Inkscape (http://www.inkscape.org/) -->

<svg
   xmlns:dc="http://purl.org/dc/elements/1.1/"
   xmlns:cc="http://creativecommons.org/ns#"
   xmlns:rdf="http://www.w3.org/1999/02/22-rdf-syntax-ns#"
   xmlns:svg="http://www.w3.org/2000/svg"
   xmlns="http://www.w3.org/2000/svg"
   xmlns:sodipodi="http://sodipodi.sourceforge.net/DTD/sodipodi-0.dtd"
   xmlns:inkscape="http://www.inkscape.org/namespaces/inkscape"
   width="133.54254mm"
   height="45.265808mm"
   viewBox="0 0 133.54254 45.265808"
   version="1.1"
   id="svg8"
   inkscape:version="0.92.5 (2060ec1f9f, 2020-04-08)"
   sodipodi:docname="logo.svg">
  <defs
     id="defs2" />
  <sodipodi:namedview
     id="base"
     pagecolor="#ffffff"
     bordercolor="#666666"
     borderopacity="1.0"
     inkscape:pageopacity="0.0"
     inkscape:pageshadow="2"
     inkscape:zoom="0.7"
     inkscape:cx="392.27349"
     inkscape:cy="202.6114"
     inkscape:document-units="mm"
     inkscape:current-layer="layer1"
     showgrid="false"
     fit-margin-top="0"
     fit-margin-left="0"
     fit-margin-right="0"
     fit-margin-bottom="0"
     inkscape:window-width="1608"
     inkscape:window-height="986"
     inkscape:window-x="72"
     inkscape:window-y="27"
     inkscape:window-maximized="1" />
  <metadata
     id="metadata5">
    <rdf:RDF>
      <cc:Work
         rdf:about="">
        <dc:format>image/svg+xml</dc:format>
        <dc:type
           rdf:resource="http://purl.org/dc/dcmitype/StillImage" />
        <dc:title></dc:title>
      </cc:Work>
    </rdf:RDF>
  </metadata>
  <g
     inkscape:label="Calque 1"
     inkscape:groupmode="layer"
     id="layer1"
     transform="translate(-47.241214,-62.282094)">
    <path
       inkscape:connector-curvature="0"
       id="path3726"
       d="m 54.043834,107.31652 c -0.378705,-0.0301 -0.963976,-0.0959 -1.300602,-0.14616 -0.608047,-0.0908 -1.758788,-0.24241 -2.881477,-0.37953 -1.028507,-0.12562 -1.553689,-0.51306 -1.869226,-1.37895 -0.07167,-0.19668 -0.229832,-0.61327 -0.35147,-0.92575 -0.361333,-0.92825 -0.39076,-1.73573 -0.398913,-10.946038 -0.0059,-6.624308 0.01483,-8.555868 0.10248,-9.563258 0.125774,-1.44563 0.143623,-3.93664 0.05153,-7.19156 -0.03976,-1.40542 -0.03301,-3.26994 0.0179,-4.94189 0.09739,-3.198314 0.048,-2.983303 1.228348,-5.347149 0.62946,-1.260603 0.879628,-1.683502 1.164265,-1.968139 0.481036,-0.481036 1.546708,-1.168287 2.312176,-1.49112 0.340048,-0.143414 0.811641,-0.378221 1.047986,-0.521793 0.399454,-0.242655 0.450856,-0.255109 0.729864,-0.176831 0.219451,0.06157 0.82465,0.06019 2.25105,-0.0051 1.414712,-0.06477 2.508123,-0.06771 3.978313,-0.01068 2.39678,0.09298 2.22386,0.07082 4.207834,0.539284 0.86261,0.203683 1.93239,0.444986 2.37729,0.536228 0.87664,0.179784 1.13738,0.303689 2.19243,1.041869 1.05113,0.735434 1.38895,1.13994 1.77358,2.12371 0.40409,1.033535 0.49378,1.463753 0.69549,3.336075 0.0884,0.820527 0.20921,1.818936 0.26848,2.218676 0.0593,0.39974 0.14652,1.12273 0.1939,1.60663 0.0474,0.4839 0.13797,1.13802 0.2013,1.45361 0.0731,0.3642 0.13864,1.37028 0.17945,2.75422 0.0354,1.19923 0.10148,2.36805 0.14693,2.59737 0.086,0.43401 0.33586,4.72026 0.2804,4.8105 -0.0174,0.0283 -0.10732,0.63674 -0.19984,1.35207 -0.11458,0.88596 -0.23012,1.45914 -0.36243,1.79789 -0.5327,1.36391 -1.39923,2.77907 -2.05567,3.357148 -0.42935,0.37811 -2.30713,1.12891 -3.0901,1.23553 -1.21371,0.16527 -2.51963,0.20499 -3.31901,0.10093 -1.016214,-0.13228 -3.055758,-0.25459 -4.260903,-0.25552 -0.529174,-3.8e-4 -1.321011,-0.049 -1.759639,-0.1079 -0.438627,-0.0589 -1.465986,-0.12965 -2.283019,-0.15715 -0.817034,-0.0275 -1.551475,-0.0853 -1.632092,-0.12845 -0.192551,-0.10305 -0.514733,-0.802388 -0.515682,-1.119358 -5.28e-4,-0.17591 0.07278,-0.32983 0.247897,-0.52052 0.381838,-0.41579 0.63972,-0.44325 2.489506,-0.26512 1.47603,0.14214 3.271665,0.24379 8.249062,0.46697 l 1.99775,0.0896 0.79472,-0.24584 c 1.39335,-0.43103 2.23821,-0.99233 2.70931,-1.8 0.35571,-0.60983 0.87676,-1.95365 0.95517,-2.46341 0.11791,-0.76661 0.20451,-3.13947 0.14113,-3.86704 -0.0303,-0.34738 -0.0938,-1.21687 -0.14113,-1.9322 -0.13394,-2.02324 -0.4454,-5.4703 -0.5324,-5.89246 -0.0739,-0.35872 -0.3044,-2.21287 -0.46579,-3.7473 -0.1899,-1.805472 -0.23395,-2.101054 -0.3736,-2.506955 -0.29198,-0.848672 -0.63329,-1.454376 -1.06837,-1.895989 -0.39054,-0.396399 -0.46786,-0.440819 -0.85038,-0.48849 -0.23143,-0.02884 -0.73064,-0.183902 -1.10934,-0.344578 -1.16506,-0.494313 -2.85053,-0.922384 -4.246089,-1.07841 -1.22047,-0.136452 -4.15437,-0.183032 -5.011145,-0.07956 -0.420783,0.05082 -1.264262,0.122701 -1.874398,0.159741 -1.868162,0.11341 -2.579266,0.391996 -3.655266,1.432002 -0.533593,0.515743 -0.754911,0.794774 -0.956924,1.206455 -0.486149,0.990723 -0.610998,1.554366 -0.940524,4.246084 -0.190349,1.55487 -0.198756,1.76839 -0.153618,3.90181 0.02626,1.24131 0.06821,2.68727 0.09321,3.21325 0.02814,0.59192 0.01191,1.14582 -0.0426,1.45362 -0.05231,0.2954 -0.111933,2.06578 -0.146865,4.36084 -0.05459,3.5863 -0.03089,6.2783 0.129284,14.689158 l 0.06192,3.251518 0.208463,0.57377 c 0.430721,1.1855 0.868855,1.38085 3.337249,1.48794 0.568057,0.0247 1.411536,0.0817 1.874397,0.12675 0.762903,0.0743 0.901247,0.0671 1.480051,-0.077 1.101677,-0.27424 1.748334,-0.75574 1.89124,-1.4082 0.02942,-0.13431 0.201912,-0.51963 0.383317,-0.85627 0.50246,-0.9324 0.906091,-2.12462 1.064237,-3.143468 0.04693,-0.30233 0.03431,-0.32651 -0.379203,-0.72681 -0.476233,-0.461 -1.229741,-0.94991 -1.637562,-1.06251 -0.209934,-0.058 -0.501244,-0.0257 -1.358165,0.15059 -0.599999,0.12341 -1.217573,0.27731 -1.372387,0.34199 -0.459114,0.19183 -0.872892,0.1522 -1.289069,-0.12346 -0.756383,-0.50101 -0.954214,-1.18266 -0.568749,-1.9597 0.272123,-0.54856 0.440843,-0.60232 2.333126,-0.74331 0.889855,-0.0663 1.905472,-0.17116 2.256927,-0.23301 0.351454,-0.0618 0.732979,-0.11251 0.847832,-0.11256 0.134556,-7e-5 0.601772,0.25616 1.313718,0.72047 1.167317,0.76128 1.713248,1.30473 1.889208,1.88063 0.045,0.14727 0.100637,0.87093 0.12364,1.60812 l 0.04182,1.340338 -0.267155,0.53406 c -0.146935,0.29373 -0.534286,1.20539 -0.860781,2.02593 -0.778215,1.95577 -0.965381,2.31357 -1.503268,2.87372 -0.58368,0.60784 -0.994082,0.82346 -2.103425,1.10509 -1.002374,0.25447 -1.965636,0.32666 -3.126923,0.23435 z"
       style="fill:#113f3a;stroke-width:0.07650603"
       sodipodi:nodetypes="ccccscccscssscccsccccccccccccccccssccccccccccccccccccccsccccccscccccccccccccsccccccccccccc" />
    <g
       aria-label="Toki Pona"
       style="font-style:normal;font-weight:normal;font-size:10.58333302px;line-height:1.25;font-family:sans-serif;letter-spacing:0px;word-spacing:0px;fill:#000000;fill-opacity:1;stroke:none;stroke-width:0.26458332"
       id="text3734">
      <path
         d="m 113.05061,62.759302 h -10.14307 l -0.254,4.707467 h 0.72814 c 0.11853,-0.846667 0.254,-1.490133 0.4572,-2.032 0.44026,-1.253067 1.25306,-1.8796 2.40453,-1.8796 0.5588,0 0.79587,0.186267 0.79587,0.6096 v 8.7376 c 0,0.8636 0,0.897466 -0.1016,1.049866 -0.13547,0.169334 -0.4572,0.237067 -1.4224,0.237067 h -0.44027 v 0.795866 h 5.80813 v -0.795866 h -0.44026 c -0.94827,0 -1.27,-0.06773 -1.40547,-0.237067 -0.1016,-0.1524 -0.1016,-0.186266 -0.1016,-1.049866 v -8.7376 c 0,-0.423333 0.23707,-0.6096 0.79587,-0.6096 1.03293,0 1.86266,0.575733 2.286,1.591733 0.254,0.626534 0.42333,1.354667 0.5588,2.319867 h 0.72813 z"
         style="font-style:normal;font-variant:normal;font-weight:normal;font-stretch:normal;font-size:16.93333244px;font-family:C059;-inkscape-font-specification:C059;stroke-width:0.26458332"
         id="path133" />
      <path
         d="m 117.43633,66.840236 c -2.0828,0 -3.69146,1.845733 -3.69146,4.216399 0,2.319867 1.6256,4.182533 3.6576,4.182533 2.032,0 3.6576,-1.862666 3.6576,-4.199466 0,-2.319867 -1.6256,-4.199466 -3.62374,-4.199466 z m 0,0.728133 c 1.18534,0 1.84574,1.236133 1.84574,3.471333 0,2.252133 -0.6604,3.471333 -1.8796,3.471333 -1.2192,0 -1.8796,-1.2192 -1.8796,-3.4544 0,-2.302933 0.64346,-3.488266 1.91346,-3.488266 z"
         style="font-style:normal;font-variant:normal;font-weight:normal;font-stretch:normal;font-size:16.93333244px;font-family:C059;-inkscape-font-specification:C059;stroke-width:0.26458332"
         id="path135" />
      <path
         d="m 125.0055,70.887302 v -8.382 l -3.13267,0.186267 v 0.728133 h 0.8128 c 0.64347,0.01693 0.72813,0.118534 0.72813,0.846667 v 8.636 0.8128 c -0.0169,0.237066 -0.0339,0.338666 -0.1016,0.423333 -0.11853,0.1524 -0.44026,0.220133 -1.16839,0.237066 h -0.0677 v 0.6096 h 4.28413 v -0.6096 h -0.0677 c -1.13453,-0.03387 -1.28693,-0.118533 -1.28693,-0.728133 v -0.745066 -0.9652 l 1.03293,-0.982134 2.01507,2.827867 c 0.0847,0.135467 0.11853,0.220133 0.11853,0.287867 0,0.237066 -0.18627,0.304799 -0.74507,0.304799 h -0.32173 v 0.6096 h 4.4704 v -0.6096 c -0.94827,-0.08467 -1.28693,-0.287866 -1.9812,-1.168399 l -2.40453,-3.285067 0.762,-0.745067 c 0.99906,-0.9652 1.71026,-1.337733 2.86173,-1.473199 v -0.6096 h -4.45347 v 0.6096 h 0.52494 c 0.54186,0 0.79586,0.1016 0.79586,0.321733 0,0.186266 -0.11853,0.389466 -0.38946,0.6604 z"
         style="font-style:normal;font-variant:normal;font-weight:normal;font-stretch:normal;font-size:16.93333244px;font-family:C059;-inkscape-font-specification:C059;stroke-width:0.26458332"
         id="path137" />
      <path
         d="m 135.41946,67.094236 -3.18346,0.186266 v 0.728133 h 0.8636 c 0.64346,0.01693 0.72813,0.118534 0.72813,0.846667 v 4.047067 0.795866 c -0.0169,0.254 -0.0339,0.3556 -0.1016,0.440267 -0.11853,0.1524 -0.44027,0.220133 -1.1684,0.237066 h -0.11853 v 0.6096 h 4.38573 v -0.6096 h -0.11853 c -1.13454,-0.03387 -1.28694,-0.118533 -1.28694,-0.728133 v -0.745066 z m -0.79586,-4.2164 c -0.54187,0 -0.98214,0.440266 -0.98214,0.982133 0,0.541867 0.44027,0.982133 0.9652,0.982133 0.5588,0 0.99907,-0.440266 0.99907,-0.982133 0,-0.541867 -0.44027,-0.982133 -0.98213,-0.982133 z"
         style="font-style:normal;font-variant:normal;font-weight:normal;font-stretch:normal;font-size:16.93333244px;font-family:C059;-inkscape-font-specification:C059;stroke-width:0.26458332"
         id="path139" />
      <path
         d="m 146.1721,69.549569 h 1.91347 c 1.524,0 2.31987,-0.118534 3.01413,-0.440267 1.18534,-0.575733 1.86267,-1.659466 1.86267,-2.9972 0,-1.286933 -0.59267,-2.269066 -1.71027,-2.827866 -0.6604,-0.338667 -1.71026,-0.524934 -2.87866,-0.524934 h -5.92667 v 0.795867 h 0.3048 c 0.9652,0.01693 1.28693,0.06773 1.4224,0.237067 0.1016,0.1524 0.1016,0.186266 0.1016,1.049866 v 8.060267 c 0,0.8636 0,0.897466 -0.1016,1.049866 -0.13547,0.169334 -0.4572,0.237067 -1.4224,0.237067 h -0.3048 v 0.795866 h 5.6896 v -0.795866 h -0.44027 c -0.9652,0 -1.28693,-0.06773 -1.4224,-0.237067 -0.1016,-0.1524 -0.1016,-0.186266 -0.1016,-1.049866 z m 0,-0.795867 v -4.334933 c 0,-0.778933 0.0847,-0.8636 1.03294,-0.8636 h 1.08373 c 1.76107,0 2.5908,0.829733 2.5908,2.624667 0,1.744133 -0.8636,2.573866 -2.65853,2.573866 z"
         style="font-style:normal;font-variant:normal;font-weight:normal;font-stretch:normal;font-size:16.93333244px;font-family:C059;-inkscape-font-specification:C059;stroke-width:0.26458332"
         id="path141" />
      <path
         d="m 157.04328,66.840236 c -2.0828,0 -3.69147,1.845733 -3.69147,4.216399 0,2.319867 1.6256,4.182533 3.6576,4.182533 2.032,0 3.6576,-1.862666 3.6576,-4.199466 0,-2.319867 -1.6256,-4.199466 -3.62373,-4.199466 z m 0,0.728133 c 1.18533,0 1.84573,1.236133 1.84573,3.471333 0,2.252133 -0.6604,3.471333 -1.8796,3.471333 -1.2192,0 -1.8796,-1.2192 -1.8796,-3.4544 0,-2.302933 0.64347,-3.488266 1.91347,-3.488266 z"
         style="font-style:normal;font-variant:normal;font-weight:normal;font-stretch:normal;font-size:16.93333244px;font-family:C059;-inkscape-font-specification:C059;stroke-width:0.26458332"
         id="path143" />
      <path
         d="m 164.62938,67.094236 -2.92947,0.186266 v 0.728133 h 0.6096 c 0.64347,0.01693 0.72814,0.118534 0.72814,0.846667 v 4.047067 0.4064 0.389466 c -0.0169,0.254 -0.0339,0.3556 -0.1016,0.440267 -0.11854,0.1524 -0.44027,0.220133 -1.1684,0.237066 h -0.0677 v 0.6096 h 4.28414 v -0.6096 h -0.0677 c -1.13453,-0.03387 -1.28693,-0.118533 -1.28693,-0.728133 v -0.745066 -1.761067 c 0,-0.829733 0.11853,-1.591733 0.3048,-1.9812 0.3556,-0.762 1.1176,-1.286933 1.84573,-1.286933 0.44027,0 0.94827,0.237066 1.20227,0.592666 0.254,0.372534 0.37253,0.880534 0.37253,1.693334 v 2.7432 0.795866 c -0.0169,0.254 -0.0339,0.3556 -0.1016,0.440267 -0.11853,0.1524 -0.4572,0.220133 -1.18533,0.237066 h -0.0677 v 0.6096 h 4.28413 v -0.6096 h -0.0677 c -1.1176,-0.03387 -1.27,-0.118533 -1.27,-0.728133 v -0.745066 -2.658534 c 0,-1.2192 -0.0508,-1.524 -0.3556,-2.099733 -0.42334,-0.8128 -1.27,-1.303866 -2.286,-1.303866 -1.10067,0 -1.9304,0.508 -2.67547,1.625599 z"
         style="font-style:normal;font-variant:normal;font-weight:normal;font-stretch:normal;font-size:16.93333244px;font-family:C059;-inkscape-font-specification:C059;stroke-width:0.26458332"
         id="path145" />
      <path
         d="m 179.24282,69.532635 c 0,-1.0668 -0.18627,-1.608666 -0.67734,-2.015066 -0.5588,-0.4572 -1.38853,-0.677333 -2.47226,-0.677333 -1.91347,0 -3.302,0.897466 -3.302,2.133599 0,0.626534 0.38946,1.032934 0.98213,1.032934 0.54187,0 0.9144,-0.3556 0.9144,-0.8636 0,-0.220134 -0.0847,-0.4572 -0.254,-0.694267 -0.1016,-0.118533 -0.11853,-0.1524 -0.11853,-0.237067 0,-0.338666 0.67733,-0.643466 1.49013,-0.643466 0.54187,0 1.13453,0.169333 1.40547,0.423333 0.32173,0.270933 0.44026,0.677333 0.44026,1.439333 v 0.6604 c -1.76106,0.3048 -2.31986,0.440267 -3.1496,0.762 -1.4732,0.541867 -2.16746,1.3208 -2.16746,2.404534 0,1.219199 0.94826,1.981199 2.45533,1.981199 1.1684,0 2.21827,-0.474133 2.9464,-1.337733 0.27093,0.8636 0.69427,1.202267 1.49013,1.202267 0.762,0 1.55787,-0.491067 1.55787,-0.982133 0,-0.118534 -0.0677,-0.2032 -0.16933,-0.2032 -0.0677,0 -0.13547,0.01693 -0.254,0.06773 -0.23707,0.1016 -0.33867,0.118533 -0.47414,0.118533 -0.47413,0 -0.64346,-0.3048 -0.64346,-1.1684 z m -1.59174,2.065867 c 0,1.016 -0.0508,1.253067 -0.33866,1.693333 -0.42334,0.626534 -1.18534,1.049867 -1.9304,1.049867 -0.77894,0 -1.33774,-0.5588 -1.33774,-1.3208 0,-0.7112 0.3556,-1.2192 1.10067,-1.5748 0.52493,-0.237067 1.18533,-0.4064 2.50613,-0.626533 z"
         style="font-style:normal;font-variant:normal;font-weight:normal;font-stretch:normal;font-size:16.93333244px;font-family:C059;-inkscape-font-specification:C059;stroke-width:0.26458332"
         id="path147" />
    </g>
    <g
       aria-label="Participative"
       style="font-style:normal;font-weight:normal;font-size:10.58333302px;line-height:1.25;font-family:sans-serif;letter-spacing:0px;word-spacing:0px;fill:#000000;fill-opacity:1;stroke:none;stroke-width:0.26458332"
       id="text3742">
      <path
         d="m 81.302225,86.636317 h 1.993194 c 1.5875,0 2.416528,-0.123472 3.139722,-0.458611 1.234723,-0.599722 1.940278,-1.728611 1.940278,-3.122083 0,-1.340556 -0.617361,-2.363611 -1.781528,-2.945695 -0.687916,-0.352777 -1.781527,-0.546805 -2.998611,-0.546805 h -6.173611 v 0.829028 h 0.3175 c 1.005417,0.01764 1.340556,0.07055 1.481667,0.246944 0.105833,0.15875 0.105833,0.194028 0.105833,1.093611 v 8.396111 c 0,0.899584 0,0.934862 -0.105833,1.093612 -0.141111,0.176389 -0.47625,0.246944 -1.481667,0.246944 h -0.3175 v 0.829028 h 5.926667 v -0.829028 h -0.458611 c -1.005417,0 -1.340556,-0.07055 -1.481667,-0.246944 -0.105833,-0.15875 -0.105833,-0.194028 -0.105833,-1.093612 z m 0,-0.829027 v -4.515556 c 0,-0.811389 0.08819,-0.899583 1.075972,-0.899583 h 1.128889 c 1.834444,0 2.69875,0.864305 2.69875,2.734027 0,1.816806 -0.899583,2.681112 -2.769306,2.681112 z"
         style="font-style:normal;font-variant:normal;font-weight:normal;font-stretch:normal;font-size:17.63888931px;font-family:C059;-inkscape-font-specification:C059;stroke-width:0.26458332"
         id="path106" />
      <path
         d="m 96.224695,86.618679 c 0,-1.111251 -0.194028,-1.675695 -0.705556,-2.099028 -0.582083,-0.47625 -1.446389,-0.705556 -2.575278,-0.705556 -1.993194,0 -3.439583,0.934861 -3.439583,2.2225 0,0.652639 0.405694,1.075972 1.023056,1.075972 0.564444,0 0.9525,-0.370416 0.9525,-0.899583 0,-0.229305 -0.08819,-0.47625 -0.264584,-0.723194 -0.105833,-0.123473 -0.123472,-0.15875 -0.123472,-0.246945 0,-0.352778 0.705556,-0.670278 1.552222,-0.670278 0.564445,0 1.181806,0.176389 1.464028,0.440973 0.335139,0.282222 0.458611,0.705555 0.458611,1.499305 v 0.687917 c -1.834444,0.3175 -2.416528,0.458611 -3.280833,0.79375 -1.534584,0.564444 -2.257778,1.375833 -2.257778,2.504722 0,1.27 0.987778,2.06375 2.557639,2.06375 1.217083,0 2.310694,-0.493889 3.069167,-1.393472 0.282222,0.899583 0.723194,1.252361 1.552222,1.252361 0.79375,0 1.622778,-0.511528 1.622778,-1.023055 0,-0.123473 -0.07056,-0.211667 -0.176389,-0.211667 -0.07056,0 -0.141111,0.01764 -0.264583,0.07055 -0.246945,0.105834 -0.352778,0.123473 -0.493889,0.123473 -0.493889,0 -0.670278,-0.3175 -0.670278,-1.217084 z m -1.658056,2.151944 c 0,1.058333 -0.05292,1.305278 -0.352778,1.763889 -0.440972,0.652639 -1.234722,1.093611 -2.010833,1.093611 -0.811389,0 -1.393472,-0.582083 -1.393472,-1.375833 0,-0.740834 0.370417,-1.27 1.146528,-1.640417 0.546805,-0.246944 1.234722,-0.423333 2.610555,-0.652639 z"
         style="font-style:normal;font-variant:normal;font-weight:normal;font-stretch:normal;font-size:17.63888931px;font-family:C059;-inkscape-font-specification:C059;stroke-width:0.26458332"
         id="path108" />
      <path
         d="m 101.55164,84.078678 -3.122088,0.194028 v 0.758472 h 0.723195 c 0.670277,0.01764 0.758472,0.123473 0.758472,0.881945 v 4.215694 0.829028 c -0.01764,0.264584 -0.03528,0.370417 -0.105834,0.458611 -0.123472,0.15875 -0.47625,0.229306 -1.234722,0.246945 h -0.07055 v 0.635 h 4.709582 v -0.635 h -0.3175 c -1.1818,-0.03528 -1.34055,-0.123472 -1.34055,-0.758472 v -0.776112 -0.176388 c 0.0176,-2.963334 1.07597,-5.221112 2.4518,-5.291667 -0.24694,0.282222 -0.3175,0.458611 -0.3175,0.79375 0,0.564444 0.4057,0.970139 0.97014,0.970139 0.65264,0 1.07597,-0.47625 1.07597,-1.181806 0,-0.864305 -0.59972,-1.42875 -1.53458,-1.42875 -1.11125,0 -2.06375,0.881945 -2.64583,2.451806 z"
         style="font-style:normal;font-variant:normal;font-weight:normal;font-stretch:normal;font-size:17.63888931px;font-family:C059;-inkscape-font-specification:C059;stroke-width:0.26458332"
         id="path110" />
      <path
         d="m 109.64784,84.078678 v -3.4925 h -0.7232 c -0.17638,2.293056 -0.9525,3.457223 -2.38125,3.563056 v 0.687917 h 1.44639 v 4.497916 c 0,1.234723 0.0353,1.675695 0.21167,2.081389 0.28222,0.740834 0.98778,1.146528 2.01083,1.146528 1.5875,0 2.61056,-1.199444 2.61056,-3.069167 0,-0.105833 0,-0.229305 -0.0176,-0.405694 h -0.74083 c -0.0529,1.5875 -0.51153,2.398889 -1.37584,2.398889 -0.40569,0 -0.75847,-0.211667 -0.88194,-0.511528 -0.10583,-0.246944 -0.15875,-0.687917 -0.15875,-1.322917 v -4.815416 h 2.59292 v -0.758473 z"
         style="font-style:normal;font-variant:normal;font-weight:normal;font-stretch:normal;font-size:17.63888931px;font-family:C059;-inkscape-font-specification:C059;stroke-width:0.26458332"
         id="path112" />
      <path
         d="m 116.72103,84.078678 -3.31611,0.194028 v 0.758472 h 0.89958 c 0.67028,0.01764 0.75848,0.123473 0.75848,0.881945 v 4.215694 0.829028 c -0.0176,0.264584 -0.0353,0.370417 -0.10584,0.458611 -0.12347,0.15875 -0.45861,0.229306 -1.21708,0.246945 h -0.12347 v 0.635 h 4.56847 v -0.635 h -0.12347 c -1.18181,-0.03528 -1.34056,-0.123472 -1.34056,-0.758472 V 90.128817 Z M 115.892,79.686595 c -0.56444,0 -1.02305,0.458611 -1.02305,1.023056 0,0.564444 0.45861,1.023055 1.00542,1.023055 0.58208,0 1.04069,-0.458611 1.04069,-1.023055 0,-0.564445 -0.45861,-1.023056 -1.02306,-1.023056 z"
         style="font-style:normal;font-variant:normal;font-weight:normal;font-stretch:normal;font-size:17.63888931px;font-family:C059;-inkscape-font-specification:C059;stroke-width:0.26458332"
         id="path114" />
      <path
         d="m 125.4699,89.705484 c -0.56444,1.27 -1.16417,1.781528 -2.08139,1.781528 -1.41111,0 -2.29305,-1.287639 -2.29305,-3.351389 0,-2.151944 0.8643,-3.563056 2.16958,-3.563056 0.52917,0 0.98778,0.246945 0.98778,0.529167 0,0.05292 -0.0176,0.105833 -0.10584,0.211667 -0.28222,0.335139 -0.35277,0.511528 -0.35277,0.811389 0,0.582083 0.44097,0.987777 1.05833,0.987777 0.635,0 1.07597,-0.493888 1.07597,-1.199444 0,-1.199445 -1.1818,-2.099028 -2.75167,-2.099028 -2.29305,0 -3.93347,1.869722 -3.93347,4.515556 0,2.504722 1.49931,4.233333 3.68653,4.233333 1.56986,0 2.46944,-0.723194 3.22792,-2.592917 z"
         style="font-style:normal;font-variant:normal;font-weight:normal;font-stretch:normal;font-size:17.63888931px;font-family:C059;-inkscape-font-specification:C059;stroke-width:0.26458332"
         id="path116" />
      <path
         d="m 130.1089,84.078678 -3.31612,0.194028 v 0.758472 h 0.89959 c 0.67028,0.01764 0.75847,0.123473 0.75847,0.881945 v 4.215694 0.829028 c -0.0176,0.264584 -0.0353,0.370417 -0.10583,0.458611 -0.12348,0.15875 -0.45861,0.229306 -1.21709,0.246945 h -0.12347 v 0.635 h 4.56847 v -0.635 h -0.12347 c -1.1818,-0.03528 -1.34055,-0.123472 -1.34055,-0.758472 v -0.776112 z m -0.82903,-4.392083 c -0.56445,0 -1.02306,0.458611 -1.02306,1.023056 0,0.564444 0.45861,1.023055 1.00542,1.023055 0.58208,0 1.04069,-0.458611 1.04069,-1.023055 0,-0.564445 -0.45861,-1.023056 -1.02305,-1.023056 z"
         style="font-style:normal;font-variant:normal;font-weight:normal;font-stretch:normal;font-size:17.63888931px;font-family:C059;-inkscape-font-specification:C059;stroke-width:0.26458332"
         id="path118" />
      <path
         d="m 135.57693,84.078678 -3.05153,0.194028 v 0.758472 h 0.635 c 0.67028,0.01764 0.75847,0.123473 0.75847,0.881945 v 7.77875 0.846667 c -0.0176,0.246944 -0.0353,0.352778 -0.10583,0.440972 -0.12347,0.15875 -0.45861,0.229306 -1.21708,0.246945 h -0.0706 v 0.635 h 4.58611 v -0.635 h -0.19402 c -1.18181,-0.03528 -1.34056,-0.123473 -1.34056,-0.758473 v -0.776111 -2.557639 c 0.58208,1.023056 1.23472,1.42875 2.32833,1.42875 1.07598,0 1.95792,-0.458611 2.59292,-1.322916 0.61736,-0.846667 0.97014,-1.940278 0.97014,-3.086806 0,-1.146528 -0.35278,-2.2225 -1.00542,-3.069167 -0.65264,-0.846667 -1.46403,-1.27 -2.4518,-1.27 -1.09361,0 -1.81681,0.458611 -2.43417,1.516945 z m 2.11667,0.687917 c 1.21708,0 1.92264,1.217084 1.92264,3.280834 0,2.275416 -0.70556,3.563055 -1.97556,3.563055 -1.27,0 -2.08139,-1.305278 -2.08139,-3.33375 0,-2.204861 0.79375,-3.510139 2.13431,-3.510139 z"
         style="font-style:normal;font-variant:normal;font-weight:normal;font-stretch:normal;font-size:17.63888931px;font-family:C059;-inkscape-font-specification:C059;stroke-width:0.26458332"
         id="path120" />
      <path
         d="m 150.12901,86.618679 c 0,-1.111251 -0.19403,-1.675695 -0.70556,-2.099028 -0.58208,-0.47625 -1.44639,-0.705556 -2.57528,-0.705556 -1.99319,0 -3.43958,0.934861 -3.43958,2.2225 0,0.652639 0.40569,1.075972 1.02305,1.075972 0.56445,0 0.9525,-0.370416 0.9525,-0.899583 0,-0.229305 -0.0882,-0.47625 -0.26458,-0.723194 -0.10583,-0.123473 -0.12347,-0.15875 -0.12347,-0.246945 0,-0.352778 0.70555,-0.670278 1.55222,-0.670278 0.56445,0 1.18181,0.176389 1.46403,0.440973 0.33514,0.282222 0.45861,0.705555 0.45861,1.499305 v 0.687917 c -1.83445,0.3175 -2.41653,0.458611 -3.28083,0.79375 -1.53459,0.564444 -2.25778,1.375833 -2.25778,2.504722 0,1.27 0.98778,2.06375 2.55764,2.06375 1.21708,0 2.31069,-0.493889 3.06916,-1.393472 0.28223,0.899583 0.7232,1.252361 1.55223,1.252361 0.79375,0 1.62277,-0.511528 1.62277,-1.023055 0,-0.123473 -0.0705,-0.211667 -0.17638,-0.211667 -0.0706,0 -0.14112,0.01764 -0.26459,0.07055 -0.24694,0.105834 -0.35278,0.123473 -0.49389,0.123473 -0.49389,0 -0.67027,-0.3175 -0.67027,-1.217084 z m -1.65806,2.151944 c 0,1.058333 -0.0529,1.305278 -0.35278,1.763889 -0.44097,0.652639 -1.23472,1.093611 -2.01083,1.093611 -0.81139,0 -1.39347,-0.582083 -1.39347,-1.375833 0,-0.740834 0.37041,-1.27 1.14652,-1.640417 0.54681,-0.246944 1.23473,-0.423333 2.61056,-0.652639 z"
         style="font-style:normal;font-variant:normal;font-weight:normal;font-stretch:normal;font-size:17.63888931px;font-family:C059;-inkscape-font-specification:C059;stroke-width:0.26458332"
         id="path122" />
      <path
         d="m 154.92676,84.078678 v -3.4925 h -0.7232 c -0.17638,2.293056 -0.9525,3.457223 -2.38125,3.563056 v 0.687917 h 1.44639 v 4.497916 c 0,1.234723 0.0353,1.675695 0.21167,2.081389 0.28222,0.740834 0.98778,1.146528 2.01083,1.146528 1.5875,0 2.61056,-1.199444 2.61056,-3.069167 0,-0.105833 0,-0.229305 -0.0176,-0.405694 h -0.74083 c -0.0529,1.5875 -0.51153,2.398889 -1.37584,2.398889 -0.40569,0 -0.75847,-0.211667 -0.88194,-0.511528 -0.10583,-0.246944 -0.15875,-0.687917 -0.15875,-1.322917 v -4.815416 h 2.59292 v -0.758473 z"
         style="font-style:normal;font-variant:normal;font-weight:normal;font-stretch:normal;font-size:17.63888931px;font-family:C059;-inkscape-font-specification:C059;stroke-width:0.26458332"
         id="path124" />
      <path
         d="m 161.99995,84.078678 -3.31611,0.194028 v 0.758472 h 0.89958 c 0.67028,0.01764 0.75848,0.123473 0.75848,0.881945 v 4.215694 0.829028 c -0.0176,0.264584 -0.0353,0.370417 -0.10584,0.458611 -0.12347,0.15875 -0.45861,0.229306 -1.21708,0.246945 h -0.12347 v 0.635 h 4.56847 v -0.635 h -0.12347 c -1.18181,-0.03528 -1.34056,-0.123472 -1.34056,-0.758472 v -0.776112 z m -0.82903,-4.392083 c -0.56444,0 -1.02305,0.458611 -1.02305,1.023056 0,0.564444 0.45861,1.023055 1.00542,1.023055 0.58208,0 1.04069,-0.458611 1.04069,-1.023055 0,-0.564445 -0.45861,-1.023056 -1.02306,-1.023056 z"
         style="font-style:normal;font-variant:normal;font-weight:normal;font-stretch:normal;font-size:17.63888931px;font-family:C059;-inkscape-font-specification:C059;stroke-width:0.26458332"
         id="path126" />
      <path
         d="m 168.68504,90.164095 -2.01083,-4.656667 c -0.0529,-0.141111 -0.0882,-0.282222 -0.0882,-0.388055 0,-0.299861 0.22931,-0.405695 0.9525,-0.405695 h 0.24695 v -0.635 h -4.16278 v 0.635 h 0.14111 c 0.67028,0 0.91722,0.176389 1.16417,0.758473 l 3.03389,7.090833 h 0.61736 l 2.50472,-6.19125 c 0.49389,-1.199444 0.91722,-1.605139 1.64042,-1.658056 h 0.0706 v -0.635 h -3.52778 v 0.635 h 0.24695 c 0.61736,0 0.9525,0.211667 0.9525,0.617362 0,0.211666 -0.0529,0.47625 -0.15875,0.740833 z"
         style="font-style:normal;font-variant:normal;font-weight:normal;font-stretch:normal;font-size:17.63888931px;font-family:C059;-inkscape-font-specification:C059;stroke-width:0.26458332"
         id="path128" />
      <path
         d="m 180.73237,88.329651 c 0.0176,-2.645834 -1.48166,-4.515556 -3.63361,-4.515556 -2.25778,0 -3.95111,1.957917 -3.95111,4.60375 0,2.487084 1.60514,4.145139 3.98639,4.145139 1.69333,0 2.87514,-0.829028 3.59833,-2.504722 l -0.61736,-0.335139 c -0.72319,1.358195 -1.46403,1.887361 -2.64583,1.887361 -0.89959,0 -1.55222,-0.370416 -2.01084,-1.164166 -0.3175,-0.529167 -0.45861,-1.146528 -0.44097,-2.116667 z m -5.69736,-0.758472 c 0,-0.546806 0.0706,-0.934862 0.24695,-1.42875 0.37041,-1.058334 0.93486,-1.569862 1.79916,-1.569862 1.05834,0 1.76389,0.934861 1.76389,2.363612 0,0.493888 -0.15875,0.635 -0.72319,0.635 z"
         style="font-style:normal;font-variant:normal;font-weight:normal;font-stretch:normal;font-size:17.63888931px;font-family:C059;-inkscape-font-specification:C059;stroke-width:0.26458332"
         id="path130" />
    </g>
    <g
       aria-label="Dictionnary"
       style="font-style:normal;font-weight:normal;font-size:10.58333302px;line-height:1.25;font-family:sans-serif;letter-spacing:0px;word-spacing:0px;fill:#000000;fill-opacity:1;stroke:none;stroke-width:0.26458332"
       id="text3746">
      <path
         d="m 76.478731,105.36774 h 3.556 c 0.941916,0 1.661583,-0.14817 2.222499,-0.46567 1.068917,-0.60325 1.661584,-1.80975 1.661584,-3.39725 0,-1.4605 -0.529167,-2.6035 -1.502834,-3.2385 -0.582083,-0.370416 -1.36525,-0.53975 -2.571749,-0.53975 h -3.3655 v 0.497417 h 0.201083 c 0.592667,0.01058 0.79375,0.04233 0.878417,0.148167 0.0635,0.09525 0.0635,0.116416 0.0635,0.656166 v 5.03767 c 0,0.53975 0,0.56091 -0.0635,0.65616 -0.08467,0.10584 -0.28575,0.13759 -0.878417,0.14817 h -0.201083 z m 2.931583,-0.49742 c -0.53975,0 -0.60325,-0.0635 -0.60325,-0.58208 v -5.471586 c 0,-0.518584 0.07408,-0.592667 0.60325,-0.592667 h 0.550333 c 1.80975,0 2.561167,0.98425 2.561167,3.323163 0,2.37067 -0.677334,3.32317 -2.391833,3.32317 z"
         style="font-style:normal;font-variant:normal;font-weight:normal;font-stretch:normal;font-family:C059;-inkscape-font-specification:C059;stroke-width:0.26458332"
         id="path83" />
      <path
         d="m 86.585812,100.4359 -1.989667,0.11642 v 0.45508 h 0.53975 c 0.402167,0.0106 0.455084,0.0741 0.455084,0.52917 v 2.52942 0.49741 c -0.01058,0.15875 -0.02117,0.22225 -0.0635,0.27517 -0.07408,0.0952 -0.275167,0.13758 -0.73025,0.14817 h -0.07408 v 0.381 h 2.741084 v -0.381 h -0.07408 c -0.709083,-0.0212 -0.804333,-0.0741 -0.804333,-0.45509 v -0.46566 z m -0.497417,-2.635246 c -0.338666,0 -0.613833,0.275166 -0.613833,0.613833 0,0.338667 0.275167,0.613833 0.60325,0.613833 0.34925,0 0.624417,-0.275166 0.624417,-0.613833 0,-0.338667 -0.275167,-0.613833 -0.613834,-0.613833 z"
         style="font-style:normal;font-variant:normal;font-weight:normal;font-stretch:normal;font-family:C059;-inkscape-font-specification:C059;stroke-width:0.26458332"
         id="path85" />
      <path
         d="m 91.835131,103.81199 c -0.338667,0.762 -0.6985,1.06891 -1.248834,1.06891 -0.846666,0 -1.375833,-0.77258 -1.375833,-2.01083 0,-1.29117 0.518583,-2.13783 1.30175,-2.13783 0.3175,0 0.592667,0.14816 0.592667,0.3175 0,0.0318 -0.01058,0.0635 -0.0635,0.127 -0.169334,0.20108 -0.211667,0.30691 -0.211667,0.48683 0,0.34925 0.264583,0.59267 0.635,0.59267 0.381,0 0.645583,-0.29634 0.645583,-0.71967 0,-0.71967 -0.709083,-1.25942 -1.651,-1.25942 -1.375833,0 -2.360083,1.12184 -2.360083,2.70934 0,1.50283 0.899583,2.54 2.211917,2.54 0.941916,0 1.481666,-0.43392 1.93675,-1.55575 z"
         style="font-style:normal;font-variant:normal;font-weight:normal;font-stretch:normal;font-family:C059;-inkscape-font-specification:C059;stroke-width:0.26458332"
         id="path87" />
      <path
         d="m 94.512685,100.4359 v -2.095496 h -0.433917 c -0.105833,1.375833 -0.5715,2.074336 -1.42875,2.137836 v 0.41275 h 0.867834 v 2.69875 c 0,0.74083 0.02117,1.00541 0.127,1.24883 0.169333,0.4445 0.592666,0.68792 1.2065,0.68792 0.9525,0 1.566333,-0.71967 1.566333,-1.8415 0,-0.0635 0,-0.13759 -0.01058,-0.24342 h -0.4445 c -0.03175,0.9525 -0.306917,1.43933 -0.8255,1.43933 -0.243417,0 -0.455084,-0.127 -0.529167,-0.30691 -0.0635,-0.14817 -0.09525,-0.41275 -0.09525,-0.79375 v -2.88925 h 1.55575 v -0.45509 z"
         style="font-style:normal;font-variant:normal;font-weight:normal;font-stretch:normal;font-family:C059;-inkscape-font-specification:C059;stroke-width:0.26458332"
         id="path89" />
      <path
         d="m 98.7566,100.4359 -1.989667,0.11642 v 0.45508 h 0.53975 c 0.402167,0.0106 0.455083,0.0741 0.455083,0.52917 v 2.52942 0.49741 c -0.01058,0.15875 -0.02117,0.22225 -0.0635,0.27517 -0.07408,0.0952 -0.275166,0.13758 -0.730249,0.14817 h -0.07408 v 0.381 h 2.741083 v -0.381 h -0.07408 c -0.709083,-0.0212 -0.804333,-0.0741 -0.804333,-0.45509 v -0.46566 z m -0.497417,-2.635246 c -0.338667,0 -0.613833,0.275166 -0.613833,0.613833 0,0.338667 0.275166,0.613833 0.60325,0.613833 0.34925,0 0.624416,-0.275166 0.624416,-0.613833 0,-0.338667 -0.275166,-0.613833 -0.613833,-0.613833 z"
         style="font-style:normal;font-variant:normal;font-weight:normal;font-stretch:normal;font-family:C059;-inkscape-font-specification:C059;stroke-width:0.26458332"
         id="path91" />
      <path
         d="m 102.57717,100.27715 c -1.30175,0 -2.30717,1.15359 -2.30717,2.63525 0,1.44992 1.016,2.61409 2.286,2.61409 1.27,0 2.286,-1.16417 2.286,-2.62467 0,-1.44992 -1.016,-2.62467 -2.26483,-2.62467 z m 0,0.45509 c 0.74083,0 1.15358,0.77258 1.15358,2.16958 0,1.40758 -0.41275,2.16958 -1.17475,2.16958 -0.762,0 -1.17475,-0.762 -1.17475,-2.159 0,-1.43933 0.40217,-2.18016 1.19592,-2.18016 z"
         style="font-style:normal;font-variant:normal;font-weight:normal;font-stretch:normal;font-family:C059;-inkscape-font-specification:C059;stroke-width:0.26458332"
         id="path93" />
      <path
         d="m 107.31848,100.4359 -1.83091,0.11642 v 0.45508 h 0.381 c 0.40216,0.0106 0.45508,0.0741 0.45508,0.52917 v 2.52942 0.254 0.24341 c -0.0106,0.15875 -0.0212,0.22225 -0.0635,0.27517 -0.0741,0.0952 -0.27517,0.13758 -0.73025,0.14817 h -0.0423 v 0.381 h 2.67758 v -0.381 h -0.0423 c -0.70909,-0.0212 -0.80434,-0.0741 -0.80434,-0.45509 v -0.46566 -1.10067 c 0,-0.51858 0.0741,-0.99483 0.1905,-1.23825 0.22225,-0.47625 0.6985,-0.80433 1.15359,-0.80433 0.27516,0 0.59266,0.14816 0.75141,0.37041 0.15875,0.23284 0.23284,0.55034 0.23284,1.05834 v 1.7145 0.49741 c -0.0106,0.15875 -0.0212,0.22225 -0.0635,0.27517 -0.0741,0.0952 -0.28575,0.13758 -0.74084,0.14817 h -0.0423 v 0.381 h 2.67758 v -0.381 h -0.0423 c -0.6985,-0.0212 -0.79375,-0.0741 -0.79375,-0.45509 v -0.46566 -1.66159 c 0,-0.762 -0.0318,-0.9525 -0.22225,-1.31233 -0.26458,-0.508 -0.79375,-0.81492 -1.42875,-0.81492 -0.68792,0 -1.2065,0.3175 -1.67217,1.016 z"
         style="font-style:normal;font-variant:normal;font-weight:normal;font-stretch:normal;font-family:C059;-inkscape-font-specification:C059;stroke-width:0.26458332"
         id="path95" />
      <path
         d="m 113.78488,100.4359 -1.83092,0.11642 v 0.45508 h 0.381 c 0.40217,0.0106 0.45509,0.0741 0.45509,0.52917 v 2.52942 0.254 0.24341 c -0.0106,0.15875 -0.0212,0.22225 -0.0635,0.27517 -0.0741,0.0952 -0.27517,0.13758 -0.73025,0.14817 h -0.0423 v 0.381 h 2.67759 v -0.381 h -0.0423 c -0.70908,-0.0212 -0.80433,-0.0741 -0.80433,-0.45509 v -0.46566 -1.10067 c 0,-0.51858 0.0741,-0.99483 0.1905,-1.23825 0.22225,-0.47625 0.6985,-0.80433 1.15358,-0.80433 0.27517,0 0.59267,0.14816 0.75142,0.37041 0.15875,0.23284 0.23283,0.55034 0.23283,1.05834 v 1.7145 0.49741 c -0.0106,0.15875 -0.0212,0.22225 -0.0635,0.27517 -0.0741,0.0952 -0.28575,0.13758 -0.74083,0.14817 h -0.0423 v 0.381 h 2.67758 v -0.381 h -0.0423 c -0.6985,-0.0212 -0.79375,-0.0741 -0.79375,-0.45509 v -0.46566 -1.66159 c 0,-0.762 -0.0318,-0.9525 -0.22225,-1.31233 -0.26459,-0.508 -0.79375,-0.81492 -1.42875,-0.81492 -0.68792,0 -1.2065,0.3175 -1.67217,1.016 z"
         style="font-style:normal;font-variant:normal;font-weight:normal;font-stretch:normal;font-family:C059;-inkscape-font-specification:C059;stroke-width:0.26458332"
         id="path97" />
      <path
         d="m 122.91828,101.9599 c 0,-0.66675 -0.11642,-1.00541 -0.42334,-1.25941 -0.34925,-0.28575 -0.86783,-0.42334 -1.54516,-0.42334 -1.19592,0 -2.06375,0.56092 -2.06375,1.3335 0,0.39159 0.24341,0.64559 0.61383,0.64559 0.33867,0 0.5715,-0.22225 0.5715,-0.53975 0,-0.13759 -0.0529,-0.28575 -0.15875,-0.43392 -0.0635,-0.0741 -0.0741,-0.0953 -0.0741,-0.14817 0,-0.21166 0.42333,-0.40216 0.93133,-0.40216 0.33867,0 0.70908,0.10583 0.87842,0.26458 0.20108,0.16933 0.27516,0.42333 0.27516,0.89958 v 0.41275 c -1.10066,0.1905 -1.44991,0.27517 -1.9685,0.47625 -0.92075,0.33867 -1.35466,0.8255 -1.35466,1.50284 0,0.762 0.59266,1.23825 1.53458,1.23825 0.73025,0 1.38642,-0.29634 1.8415,-0.83609 0.16933,0.53975 0.43392,0.75142 0.93133,0.75142 0.47625,0 0.97367,-0.30692 0.97367,-0.61383 0,-0.0741 -0.0423,-0.127 -0.10583,-0.127 -0.0423,0 -0.0847,0.0106 -0.15875,0.0423 -0.14817,0.0635 -0.21167,0.0741 -0.29634,0.0741 -0.29633,0 -0.40216,-0.1905 -0.40216,-0.73025 z m -0.99484,1.29117 c 0,0.635 -0.0318,0.78317 -0.21166,1.05833 -0.26459,0.39159 -0.74084,0.65617 -1.2065,0.65617 -0.48684,0 -0.83609,-0.34925 -0.83609,-0.8255 0,-0.4445 0.22225,-0.762 0.68792,-0.98425 0.32808,-0.14817 0.74083,-0.254 1.56633,-0.39158 z"
         style="font-style:normal;font-variant:normal;font-weight:normal;font-stretch:normal;font-family:C059;-inkscape-font-specification:C059;stroke-width:0.26458332"
         id="path99" />
      <path
         d="m 126.11444,100.4359 -1.87325,0.11642 v 0.45508 h 0.43392 c 0.40216,0.0106 0.45508,0.0741 0.45508,0.52917 v 2.52942 0.49741 c -0.0106,0.15875 -0.0212,0.22225 -0.0635,0.27517 -0.0741,0.0952 -0.28575,0.13758 -0.74083,0.14817 h -0.0423 v 0.381 h 2.82575 v -0.381 h -0.1905 c -0.70908,-0.0212 -0.80433,-0.0741 -0.80433,-0.45509 v -0.46566 -0.10584 c 0.0106,-1.778 0.64558,-3.13266 1.47108,-3.175 -0.14816,0.16934 -0.1905,0.27517 -0.1905,0.47625 0,0.33867 0.24342,0.58209 0.58209,0.58209 0.39158,0 0.64558,-0.28575 0.64558,-0.70909 0,-0.51858 -0.35983,-0.85725 -0.92075,-0.85725 -0.66675,0 -1.23825,0.52917 -1.5875,1.47109 z"
         style="font-style:normal;font-variant:normal;font-weight:normal;font-stretch:normal;font-family:C059;-inkscape-font-specification:C059;stroke-width:0.26458332"
         id="path101" />
      <path
         d="m 132.09399,104.02365 -1.16416,-2.71991 c -0.0423,-0.10584 -0.0635,-0.15875 -0.0635,-0.21167 0,-0.20108 0.127,-0.27517 0.48683,-0.27517 h 0.22225 v -0.381 h -2.51883 v 0.381 h 0.11641 c 0.35984,0.0106 0.49742,0.11642 0.71967,0.5715 l 1.72508,3.90525 -0.17991,0.37042 c -0.381,0.80433 -0.87842,1.36525 -1.21709,1.36525 -0.0952,0 -0.16933,-0.0423 -0.16933,-0.10583 0,-0.0212 0.0106,-0.0529 0.0212,-0.0953 0.0318,-0.0952 0.0529,-0.1905 0.0529,-0.27517 0,-0.27517 -0.22225,-0.47625 -0.53975,-0.47625 -0.37041,0 -0.635,0.27517 -0.635,0.65617 0,0.47625 0.40217,0.81491 0.96309,0.81491 0.56091,0 1.03716,-0.27516 1.4605,-0.84666 0.32808,-0.43392 0.53975,-0.87842 1.00541,-2.032 l 1.2065,-2.99509 c 0.24342,-0.61383 0.47625,-0.84666 0.889,-0.85725 h 0.0635 v -0.381 h -2.11666 v 0.381 h 0.16933 c 0.40217,0 0.5715,0.11642 0.5715,0.39159 0,0.11641 -0.0318,0.24341 -0.10583,0.42333 z"
         style="font-style:normal;font-variant:normal;font-weight:normal;font-stretch:normal;font-family:C059;-inkscape-font-specification:C059;stroke-width:0.26458332"
         id="path103" />
    </g>
    <g
       aria-label="the"
       style="font-style:normal;font-weight:normal;font-size:10.58333302px;line-height:1.25;font-family:sans-serif;letter-spacing:0px;word-spacing:0px;fill:#000000;fill-opacity:1;stroke:none;stroke-width:0.26458332"
       id="text3734-3">
      <path
         d="m 80.488679,69.348974 v -2.5146 h -0.5207 c -0.127,1.651 -0.6858,2.4892 -1.7145,2.5654 v 0.4953 h 1.0414 v 3.2385 c 0,0.889 0.0254,1.2065 0.1524,1.4986 0.2032,0.5334 0.7112,0.8255 1.4478,0.8255 1.143,0 1.8796,-0.8636 1.8796,-2.2098 0,-0.0762 0,-0.1651 -0.0127,-0.2921 h -0.5334 c -0.0381,1.143 -0.3683,1.7272 -0.9906,1.7272 -0.2921,0 -0.5461,-0.1524 -0.635,-0.3683 -0.0762,-0.1778 -0.1143,-0.4953 -0.1143,-0.9525 v -3.4671 h 1.8669 v -0.5461 z"
         style="font-style:normal;font-variant:normal;font-weight:normal;font-stretch:normal;font-size:12.69999981px;font-family:C059;-inkscape-font-specification:C059;stroke-width:0.26458332"
         id="path76" />
      <path
         d="m 85.492461,65.907274 -2.3495,0.1397 v 0.5461 h 0.6096 c 0.4826,0.0127 0.5461,0.0889 0.5461,0.635 v 6.477 0.3048 0.3048 c -0.0127,0.1778 -0.0254,0.254 -0.0762,0.3175 -0.0889,0.1143 -0.3302,0.1651 -0.8763,0.1778 h -0.0508 v 0.4572 h 3.2131 v -0.4572 h -0.0508 c -0.8509,-0.0254 -0.9652,-0.0889 -0.9652,-0.5461 v -0.5588 -1.3208 c 0,-0.6223 0.0889,-1.1938 0.2286,-1.4859 0.2794,-0.5715 0.8382,-0.9652 1.3843,-0.9652 0.3302,0 0.7112,0.1905 0.889,0.4445 0.2032,0.2794 0.2921,0.6604 0.2921,1.2827 v 2.0447 0.6096 c -0.0127,0.1778 -0.0254,0.254 -0.0762,0.3175 -0.0889,0.1143 -0.3429,0.1651 -0.889,0.1778 h -0.0508 v 0.4572 h 3.2131 v -0.4572 h -0.0508 c -0.8382,-0.0254 -0.9525,-0.0889 -0.9525,-0.5461 v -0.5588 -1.9939 c 0,-0.9144 -0.0381,-1.143 -0.2667,-1.5748 -0.3175,-0.6223 -0.9525,-0.9779 -1.7145,-0.9779 -0.8255,0 -1.4351,0.3683 -2.0066,1.2192 z"
         style="font-style:normal;font-variant:normal;font-weight:normal;font-stretch:normal;font-size:12.69999981px;font-family:C059;-inkscape-font-specification:C059;stroke-width:0.26458332"
         id="path78" />
      <path
         d="m 96.617637,72.409674 c 0.0127,-1.905 -1.0668,-3.2512 -2.6162,-3.2512 -1.6256,0 -2.8448,1.4097 -2.8448,3.3147 0,1.7907 1.1557,2.9845 2.8702,2.9845 1.2192,0 2.0701,-0.5969 2.5908,-1.8034 l -0.4445,-0.2413 c -0.5207,0.9779 -1.0541,1.3589 -1.905,1.3589 -0.6477,0 -1.1176,-0.2667 -1.4478,-0.8382 -0.2286,-0.381 -0.3302,-0.8255 -0.3175,-1.524 z m -4.1021,-0.5461 c 0,-0.3937 0.0508,-0.6731 0.1778,-1.0287 0.2667,-0.762 0.6731,-1.1303 1.2954,-1.1303 0.762,0 1.27,0.6731 1.27,1.7018 0,0.3556 -0.1143,0.4572 -0.5207,0.4572 z"
         style="font-style:normal;font-variant:normal;font-weight:normal;font-stretch:normal;font-size:12.69999981px;font-family:C059;-inkscape-font-specification:C059;stroke-width:0.26458332"
         id="path80" />
    </g>
  </g>
</svg>
